# xmcd CD database file
#
# Track frame offsets:
#	150
#	21750
#	43600
#	64651
#	87395
#	106239
#	124900
#	143756
#	158043
#	171981
#	185977
#	200319
#	214534
#	228711
#	242632
#	263885
#	282532
#	302372
#
# Disc length: 4261 seconds
#
# Revision: 0
# Processed by: cddbd v1.5.2PL0 Copyright (c) Steve Scherf et al.
# Submitted via: CDex 1.70beta2
#
DISCID=0410a312
DTITLE=Various Artist - Jazz Roads CD174 - Swing - Lester Young Vol.2 (1939-41)
DYEAR=2006
DGENRE=Jazz
TTITLE0=Lester Young and King Cole Trio - Indiana
TTITLE1=Lester Young and King Cole Trio - I Can't Get Started
TTITLE2=Lester Young and King Cole Trio - Tea For Two
TTITLE3=Lester Young and King Cole Trio - Body And Soul
TTITLE4=Dickie Wells And His Orchestra - I Got Rhythm
TTITLE5=Dickie Wells And His Orchestra - I'm Fer It Too
TTITLE6=Dickie Wells And His Orchestra - I'm Fer It Too
TTITLE7=Dickie Wells And His Orchestra - Hello Babe
TTITLE8=Dickie Wells And His Orchestra - Hello Babe
TTITLE9=Dickie Wells And His Orchestra - Linger Awhile
TTITLE10=Lester Young Quartet - Just You, Just Me
TTITLE11=Lester Young Quartet - I Never Knew
TTITLE12=Lester Young Quartet - Afternoon Of A Basie-ite
TTITLE13=Lester Young Quartet - Sometimes I'm Happy
TTITLE14=Kansas City Seven - After Theatre Jump
TTITLE15=Kansas City Seven - Six Cats and A Prince
TTITLE16=Kansas City Seven - Lester Leaps Again
TTITLE17=Kansas City Seven - Destination K.C.
EXTD=YEAR: 2006
EXTT0=
EXTT1=
EXTT2=
EXTT3=
EXTT4=
EXTT5=
EXTT6=
EXTT7=
EXTT8=
EXTT9=
EXTT10=
EXTT11=
EXTT12=
EXTT13=
EXTT14=
EXTT15=
EXTT16=
EXTT17=
PLAYORDER=
